<svg width="50" height="51" viewBox="0 0 50 51" fill="none" xmlns="http://www.w3.org/2000/svg">
<g clip-path="url(#clip0_280_119)">
<path fill-rule="evenodd" clip-rule="evenodd" d="M25 50.5C38.807 50.5 50 39.307 50 25.5C50 11.6929 38.807 0.5 25 0.5C11.1929 0.5 0 11.6929 0 25.5C0 39.307 11.1929 50.5 25 50.5ZM26.875 18C26.875 16.9645 26.0355 16.125 25 16.125C23.9645 16.125 23.125 16.9645 23.125 18V23.625H17.5C16.4645 23.625 15.625 24.4645 15.625 25.5C15.625 26.5355 16.4645 27.375 17.5 27.375H23.125V33C23.125 34.0355 23.9645 34.875 25 34.875C26.0355 34.875 26.875 34.0355 26.875 33V27.375H32.5C33.5355 27.375 34.375 26.5355 34.375 25.5C34.375 24.4645 33.5355 23.625 32.5 23.625H26.875V18Z" fill="white"/>
</g>
<defs>
<clipPath id="clip0_280_119">
<rect width="50" height="50" fill="white" transform="translate(0 0.5)"/>
</clipPath>
</defs>
</svg>
