<svg width="53" height="43" viewBox="0 0 53 43" fill="none" xmlns="http://www.w3.org/2000/svg">
<mask id="mask0_280_2" style="mask-type:luminance" maskUnits="userSpaceOnUse" x="0" y="1" width="53" height="41">
<path d="M52.5 1H0.5V42H52.5V1Z" fill="white"/>
</mask>
<g mask="url(#mask0_280_2)">
<mask id="mask1_280_2" style="mask-type:luminance" maskUnits="userSpaceOnUse" x="0" y="1" width="53" height="41">
<path d="M52.5 1H0.5V42H52.5V1Z" fill="white"/>
</mask>
<g mask="url(#mask1_280_2)">
<path d="M44.3673 4.82057C41.0135 3.26638 37.4416 2.12119 33.6788 1.4668C33.2153 2.28479 32.6699 3.40272 32.3155 4.30251C28.3346 3.70265 24.3809 3.70265 20.4819 4.30251C20.1001 3.40272 19.5548 2.28479 19.0913 1.4668C15.3285 2.12119 11.7566 3.26638 8.4028 4.82057C1.64072 15.0182 -0.186137 24.9706 0.713657 34.7592C5.21263 38.113 9.54799 40.1307 13.8288 41.4668C14.8922 40.0217 15.8193 38.4675 16.6373 36.8588C15.0831 36.2862 13.6107 35.55 12.2201 34.7047C12.6018 34.432 12.9563 34.1321 13.3108 33.8595C21.8451 37.8404 31.0885 37.8404 39.5138 33.8595C39.8683 34.1594 40.2227 34.432 40.6045 34.7047C39.2139 35.55 37.7142 36.2589 36.1873 36.8588C37.0053 38.4675 37.9324 40.0217 38.9958 41.4668C43.2766 40.1307 47.6392 38.113 52.1109 34.7592C53.1743 23.3891 50.2841 13.5458 44.4218 4.82057H44.3673ZM17.7825 28.7606C15.2194 28.7606 13.1199 26.3884 13.1199 23.4709C13.1199 20.5534 15.1649 18.1812 17.7825 18.1812C20.4 18.1812 22.4723 20.5534 22.445 23.4709C22.445 26.3612 20.4 28.7606 17.7825 28.7606ZM34.9876 28.7606C32.4245 28.7606 30.325 26.3884 30.325 23.4709C30.325 20.5534 32.37 18.1812 34.9876 18.1812C37.6052 18.1812 39.6774 20.5534 39.6502 23.4709C39.6502 26.3612 37.6052 28.7606 34.9876 28.7606Z" fill="#FF9211"/>
</g>
</g>
</svg>
