<svg width="60" height="61" viewBox="0 0 60 61" fill="none" xmlns="http://www.w3.org/2000/svg">
<g clip-path="url(#clip0_280_131)">
<mask id="mask0_280_131" style="mask-type:luminance" maskUnits="userSpaceOnUse" x="0" y="0" width="60" height="61">
<path d="M60 0.5H0V60.5H60V0.5Z" fill="white"/>
</mask>
<g mask="url(#mask0_280_131)">
<path d="M48.75 38C48.2575 37.9997 47.7697 38.0965 47.3146 38.2849C46.8595 38.4732 46.446 38.7495 46.0977 39.0977C45.7495 39.446 45.4732 39.8595 45.2849 40.3146C45.0965 40.7697 44.9997 41.2575 45 41.75V53H7.5V15.5H18.75C19.7446 15.5 20.6984 15.1049 21.4017 14.4017C22.1049 13.6984 22.5 12.7446 22.5 11.75C22.5 10.7554 22.1049 9.80161 21.4017 9.09835C20.6984 8.39509 19.7446 8 18.75 8H3.75C3.25747 7.99972 2.7697 8.09653 2.31461 8.28488C1.85951 8.47324 1.446 8.74945 1.09773 9.09773C0.749452 9.446 0.47324 9.85951 0.284883 10.3146C0.0965272 10.7697 -0.000278738 11.2575 6.02821e-07 11.75V56.75C-0.000278738 57.2425 0.0965272 57.7303 0.284883 58.1854C0.47324 58.6405 0.749452 59.054 1.09773 59.4023C1.446 59.7505 1.85951 60.0268 2.31461 60.2151C2.7697 60.4035 3.25747 60.5003 3.75 60.5H48.75C49.2425 60.5003 49.7303 60.4035 50.1854 60.2151C50.6405 60.0268 51.054 59.7505 51.4023 59.4023C51.7505 59.054 52.0268 58.6405 52.2151 58.1854C52.4035 57.7303 52.5003 57.2425 52.5 56.75V41.75C52.5003 41.2575 52.4035 40.7697 52.2151 40.3146C52.0268 39.8595 51.7505 39.446 51.4023 39.0977C51.054 38.7495 50.6405 38.4732 50.1854 38.2849C49.7303 38.0965 49.2425 37.9997 48.75 38Z" fill="#FF9211"/>
<path d="M58.9014 9.09862L51.4014 1.59862C51.0533 1.25033 50.6399 0.974033 50.185 0.785529C49.7301 0.597024 49.2424 0.5 48.75 0.5C48.2576 0.5 47.7699 0.597024 47.315 0.785529C46.8601 0.974033 46.4467 1.25033 46.0986 1.59862L23.5986 24.0986C23.2503 24.4467 22.9739 24.86 22.7854 25.315C22.5969 25.7699 22.4999 26.2575 22.5 26.75V34.25C22.4997 34.7425 22.5965 35.2303 22.7849 35.6854C22.9732 36.1405 23.2495 36.554 23.5977 36.9023C23.946 37.2505 24.3595 37.5268 24.8146 37.7151C25.2697 37.9035 25.7575 38.0003 26.25 38H33.75C34.2425 38.0001 34.7301 37.9031 35.185 37.7146C35.64 37.5261 36.0533 37.2497 36.4014 36.9014L58.9014 14.4014C59.2497 14.0532 59.526 13.6399 59.7145 13.185C59.903 12.73 60 12.2424 60 11.75C60 11.2576 59.903 10.7699 59.7145 10.315C59.526 9.86007 59.2497 9.44674 58.9014 9.09862ZM32.1972 30.5H30V28.3027L48.75 9.55274L50.9473 11.75L32.1972 30.5Z" fill="#FF9211"/>
</g>
</g>
<defs>
<clipPath id="clip0_280_131">
<rect width="60" height="60" fill="white" transform="translate(0 0.5)"/>
</clipPath>
</defs>
</svg>
