<svg width="45" height="31" viewBox="0 0 45 31" fill="none" xmlns="http://www.w3.org/2000/svg">
<g clip-path="url(#clip0_280_156)">
<path fill-rule="evenodd" clip-rule="evenodd" d="M0 3C0 1.6193 1.1193 0.5 2.5 0.5H42.5C43.8807 0.5 45 1.6193 45 3C45 4.3807 43.8807 5.5 42.5 5.5H2.5C1.1193 5.5 0 4.3807 0 3ZM7.5 15.5C7.5 14.1193 8.6193 13 10 13H35C36.3807 13 37.5 14.1193 37.5 15.5C37.5 16.8807 36.3807 18 35 18H10C8.6193 18 7.5 16.8807 7.5 15.5ZM15 28C15 26.6193 16.1193 25.5 17.5 25.5H27.5C28.8807 25.5 30 26.6193 30 28C30 29.3807 28.8807 30.5 27.5 30.5H17.5C16.1193 30.5 15 29.3807 15 28Z" fill="white"/>
</g>
<defs>
<clipPath id="clip0_280_156">
<rect width="45" height="30" fill="white" transform="translate(0 0.5)"/>
</clipPath>
</defs>
</svg>
