<svg width="20" height="24" viewBox="0 0 20 24" fill="none" xmlns="http://www.w3.org/2000/svg">
<g clip-path="url(#clip0_280_158)">
<path d="M14.8267 4.43261C16.4655 6.06014 18.8333 9.47383 18.8333 13.8165C18.8333 18.5126 14.7604 22.3742 9.66667 22.3742C4.57291 22.3742 0.5 18.5126 0.5 13.8165C0.5 7.98566 3.89527 3.75581 6.46315 1.65032C6.49555 1.62376 6.51234 1.62421 6.51334 1.62424C6.51724 1.62419 6.52661 1.62527 6.53945 1.63462C6.5526 1.6442 6.56501 1.65962 6.57201 1.6796C6.57811 1.69704 6.58281 1.72545 6.57031 1.76844C5.64263 4.95843 5.71053 7.00463 6.31783 8.25611C6.94435 9.54721 8.0934 9.89824 9.00905 9.78767C10.4072 9.77447 11.592 8.91956 12.5056 7.89538C13.4352 6.85341 14.1563 5.55783 14.6204 4.50778C14.6436 4.45539 14.6889 4.4213 14.7354 4.41025C14.7768 4.40041 14.8042 4.41025 14.8267 4.43261Z" fill="url(#paint0_linear_280_158)"/>
<path d="M6.46315 1.65032C3.89527 3.75581 0.5 7.98566 0.5 13.8165C0.5 18.5126 4.57291 22.3742 9.66667 22.3742C14.7604 22.3742 18.8333 18.5126 18.8333 13.8165C18.8333 9.47383 16.4655 6.06014 14.8267 4.43261C14.8042 4.41025 14.7768 4.40041 14.7354 4.41025C14.6889 4.4213 14.6436 4.45539 14.6204 4.50778C14.1563 5.55783 13.4352 6.85341 12.5056 7.89538C11.592 8.91956 10.4072 9.77447 9.00905 9.78767C8.0934 9.89824 6.94435 9.54721 6.31783 8.25611C5.71053 7.00463 5.64263 4.95843 6.57031 1.76844C6.58281 1.72545 6.57811 1.69704 6.57201 1.6796C6.56501 1.65962 6.5526 1.6442 6.53945 1.63462C6.52661 1.62527 6.51724 1.62419 6.51334 1.62424C6.51234 1.62421 6.49555 1.62376 6.46315 1.65032ZM6.46315 1.65032L6.14613 1.26367" stroke="#FF0000"/>
</g>
<defs>
<linearGradient id="paint0_linear_280_158" x1="9.66667" y1="1.12424" x2="9.66667" y2="22.8742" gradientUnits="userSpaceOnUse">
<stop offset="0.385" stop-color="#FF8A00"/>
<stop offset="0.7" stop-color="#F2B834"/>
<stop offset="1" stop-color="#FFF96F"/>
</linearGradient>
<clipPath id="clip0_280_158">
<rect width="20" height="23" fill="white" transform="translate(0 0.5)"/>
</clipPath>
</defs>
</svg>
