<svg width="126" height="27" viewBox="0 0 126 27" fill="none" xmlns="http://www.w3.org/2000/svg">
<path d="M9.3332 8.3332H9.3439M13.0375 4H10.1359C8.33816 4 7.4393 4 6.75266 4.34986C6.14867 4.65761 5.65761 5.14867 5.34986 5.75266C5 6.4393 5 7.33816 5 9.1359V12.0375C5 12.8225 5 13.2151 5.08869 13.5846C5.16732 13.9121 5.29702 14.2252 5.47302 14.5124C5.67152 14.8363 5.9491 15.1139 6.50427 15.6691L11.5332 20.698C12.8043 21.9691 13.44 22.6048 14.1728 22.8429C14.8176 23.0524 15.512 23.0524 16.1568 22.8429C16.8896 22.6048 17.5253 21.9691 18.7964 20.698L21.698 17.7964C22.9691 16.5253 23.6048 15.8896 23.8429 15.1568C24.0524 14.512 24.0524 13.8176 23.8429 13.1728C23.6048 12.44 22.9691 11.8043 21.698 10.5332L16.6691 5.50427C16.1139 4.9491 15.8363 4.67152 15.5124 4.47302C15.2252 4.29702 14.9121 4.16732 14.5846 4.08869C14.2151 4 13.8225 4 13.0375 4ZM9.86819 8.3332C9.86819 8.62868 9.62868 8.86819 9.3332 8.86819C9.03774 8.86819 8.79821 8.62868 8.79821 8.3332C8.79821 8.03774 9.03774 7.79821 9.3332 7.79821C9.62868 7.79821 9.86819 8.03774 9.86819 8.3332Z" stroke="#FF9211" stroke-width="2" stroke-linecap="round" stroke-linejoin="round"/>
<path d="M35.1191 18.4203H44.5991C44.8791 18.4203 45.0191 18.5603 45.0191 18.8403V20.0803C45.0191 20.3603 44.8791 20.5003 44.5991 20.5003H33.0391C32.7591 20.5003 32.6191 20.3603 32.6191 20.0803V6.92031C32.6191 6.64031 32.7591 6.50031 33.0391 6.50031H34.6791C34.9724 6.50031 35.1191 6.64031 35.1191 6.92031V18.4203ZM46.8746 6.20031C46.8746 5.94698 47.0079 5.82031 47.2746 5.82031H48.7746C49.0412 5.82031 49.1746 5.94698 49.1746 6.20031V7.76031C49.1746 8.01364 49.0412 8.14031 48.7746 8.14031H47.2746C47.0079 8.14031 46.8746 8.01364 46.8746 7.76031V6.20031ZM46.8746 10.3603C46.8746 10.107 47.0079 9.98031 47.2746 9.98031H48.7746C49.0412 9.98031 49.1746 10.107 49.1746 10.3603V20.1203C49.1746 20.3736 49.0412 20.5003 48.7746 20.5003H47.2746C47.0079 20.5003 46.8746 20.3736 46.8746 20.1203V10.3603ZM54.0466 13.4403C54.0466 13.747 54.1266 13.967 54.2866 14.1003C54.4466 14.2203 54.6999 14.2803 55.0466 14.2803H59.4466C59.9399 14.2803 60.3599 14.327 60.7066 14.4203C61.0666 14.5003 61.3533 14.647 61.5666 14.8603C61.7933 15.0603 61.9599 15.3336 62.0666 15.6803C62.1733 16.0136 62.2266 16.4336 62.2266 16.9403V17.8403C62.2266 18.827 62.0066 19.5203 61.5666 19.9203C61.1399 20.307 60.4333 20.5003 59.4466 20.5003H54.3266C53.3399 20.5003 52.6266 20.2936 52.1866 19.8803C51.7599 19.467 51.5466 18.7936 51.5466 17.8603V17.7203C51.5466 17.4803 51.6799 17.3603 51.9466 17.3603H53.3866C53.6533 17.3603 53.7866 17.4803 53.7866 17.7203V17.8203C53.7866 18.127 53.8666 18.3403 54.0266 18.4603C54.1866 18.567 54.4333 18.6203 54.7666 18.6203H58.9266C59.2733 18.6203 59.5266 18.5603 59.6866 18.4403C59.8466 18.307 59.9266 18.0803 59.9266 17.7603V17.0003C59.9266 16.4136 59.5933 16.1203 58.9266 16.1203H54.5066C54.0133 16.1203 53.5933 16.0803 53.2466 16.0003C52.8999 15.907 52.6133 15.7603 52.3866 15.5603C52.1733 15.347 52.0133 15.0736 51.9066 14.7403C51.7999 14.3936 51.7466 13.967 51.7466 13.4603V12.6403C51.7466 11.6536 51.9599 10.967 52.3866 10.5803C52.8133 10.1803 53.5199 9.98031 54.5066 9.98031H59.2066C60.1666 9.98031 60.8599 10.187 61.2866 10.6003C61.7266 11.0136 61.9466 11.687 61.9466 12.6203V12.7603C61.9466 13.0003 61.8199 13.1203 61.5666 13.1203H60.1066C59.8533 13.1203 59.7266 13.0003 59.7266 12.7603V12.6603C59.7266 12.367 59.6466 12.1603 59.4866 12.0403C59.3266 11.9203 59.0799 11.8603 58.7466 11.8603H55.0466C54.6999 11.8603 54.4466 11.927 54.2866 12.0603C54.1266 12.1803 54.0466 12.4003 54.0466 12.7203V13.4403ZM67.5261 11.8803V17.3603C67.5261 17.627 67.5395 17.8403 67.5661 18.0003C67.6061 18.1603 67.6661 18.287 67.7461 18.3803C67.8395 18.4603 67.9595 18.5203 68.1061 18.5603C68.2528 18.587 68.4395 18.6003 68.6661 18.6003H70.1661C70.4195 18.6003 70.5461 18.727 70.5461 18.9803V20.1203C70.5461 20.3736 70.4195 20.5003 70.1661 20.5003H68.0261C67.0261 20.5003 66.3061 20.2936 65.8661 19.8803C65.4395 19.467 65.2261 18.7803 65.2261 17.8203V11.8803H64.0261C63.7728 11.8803 63.6461 11.7536 63.6461 11.5003V10.3603C63.6461 10.107 63.7728 9.98031 64.0261 9.98031H65.2261V7.68031C65.2261 7.42698 65.3528 7.30031 65.6061 7.30031H67.1261C67.3928 7.30031 67.5261 7.42698 67.5261 7.68031V9.98031H70.1661C70.4195 9.98031 70.5461 10.107 70.5461 10.3603V11.5003C70.5461 11.7536 70.4195 11.8803 70.1661 11.8803H67.5261ZM72.8316 6.20031C72.8316 5.94698 72.9649 5.82031 73.2316 5.82031H74.7316C74.9983 5.82031 75.1316 5.94698 75.1316 6.20031V7.76031C75.1316 8.01364 74.9983 8.14031 74.7316 8.14031H73.2316C72.9649 8.14031 72.8316 8.01364 72.8316 7.76031V6.20031ZM72.8316 10.3603C72.8316 10.107 72.9649 9.98031 73.2316 9.98031H74.7316C74.9983 9.98031 75.1316 10.107 75.1316 10.3603V20.1203C75.1316 20.3736 74.9983 20.5003 74.7316 20.5003H73.2316C72.9649 20.5003 72.8316 20.3736 72.8316 20.1203V10.3603ZM86.2236 13.3003C86.2236 13.007 86.2036 12.767 86.1636 12.5803C86.1236 12.3936 86.0436 12.2536 85.9236 12.1603C85.8036 12.0536 85.6303 11.9803 85.4036 11.9403C85.1903 11.9003 84.9036 11.8803 84.5436 11.8803H82.6436C81.8436 11.8803 81.277 12.0403 80.9436 12.3603C80.6236 12.667 80.4636 13.1603 80.4636 13.8403V20.1203C80.4636 20.3736 80.3303 20.5003 80.0636 20.5003H78.5636C78.297 20.5003 78.1636 20.3736 78.1636 20.1203V10.3603C78.1636 10.107 78.297 9.98031 78.5636 9.98031H79.8036C80.057 9.98031 80.1836 10.107 80.1836 10.3603V11.7803C80.5703 10.5803 81.5503 9.98031 83.1236 9.98031H85.5436C86.5836 9.98031 87.337 10.207 87.8036 10.6603C88.2836 11.1136 88.5236 11.8403 88.5236 12.8403V20.1203C88.5236 20.3736 88.397 20.5003 88.1436 20.5003H86.6236C86.357 20.5003 86.2236 20.3736 86.2236 20.1203V13.3003ZM94.1254 20.5003C93.0854 20.5003 92.3254 20.2736 91.8454 19.8203C91.3787 19.367 91.1454 18.6403 91.1454 17.6403V12.8403C91.1454 11.8403 91.3787 11.1136 91.8454 10.6603C92.3254 10.207 93.0854 9.98031 94.1254 9.98031H96.7854C98.3054 9.98031 99.2787 10.547 99.7054 11.6803V10.3603C99.7054 10.107 99.8387 9.98031 100.105 9.98031H101.365C101.619 9.98031 101.745 10.107 101.745 10.3603V21.4603C101.745 22.487 101.472 23.2603 100.925 23.7803C100.379 24.3136 99.572 24.5803 98.5054 24.5803H94.1254C93.152 24.5803 92.4454 24.3803 92.0054 23.9803C91.5787 23.5936 91.3654 22.927 91.3654 21.9803V21.8203C91.3654 21.5803 91.492 21.4603 91.7454 21.4603H93.1854C93.452 21.4603 93.5854 21.5803 93.5854 21.8203V22.0403C93.5854 22.3203 93.6587 22.5136 93.8054 22.6203C93.9654 22.7403 94.2054 22.8003 94.5254 22.8003H97.6654C98.0254 22.8003 98.3187 22.7736 98.5454 22.7203C98.7854 22.667 98.9654 22.5803 99.0854 22.4603C99.2187 22.3403 99.312 22.1803 99.3654 21.9803C99.4187 21.7803 99.4454 21.527 99.4454 21.2203V19.1203C98.9787 20.0403 98.052 20.5003 96.6654 20.5003H94.1254ZM95.1254 11.8803C94.7654 11.8803 94.472 11.9003 94.2454 11.9403C94.032 11.9803 93.8587 12.0536 93.7254 12.1603C93.6054 12.2536 93.5254 12.3936 93.4854 12.5803C93.4454 12.767 93.4254 13.007 93.4254 13.3003V17.1803C93.4254 17.4736 93.4454 17.7136 93.4854 17.9003C93.5254 18.087 93.6054 18.2336 93.7254 18.3403C93.8587 18.4336 94.032 18.5003 94.2454 18.5403C94.472 18.5803 94.7654 18.6003 95.1254 18.6003H97.2654C98.0654 18.6003 98.6254 18.447 98.9454 18.1403C99.2787 17.8203 99.4454 17.3203 99.4454 16.6403V13.8403C99.4454 13.1603 99.2787 12.667 98.9454 12.3603C98.6254 12.0403 98.0654 11.8803 97.2654 11.8803H95.1254Z" fill="#FF9211"/>
</svg>
