<svg width="50" height="41" viewBox="0 0 50 41" fill="none" xmlns="http://www.w3.org/2000/svg">
<g clip-path="url(#clip0_280_160)">
<path d="M0 5.5C0 4.17392 0.526784 2.90215 1.46447 1.96447C2.40215 1.02678 3.67392 0.5 5 0.5H27.5C28.8261 0.5 30.0979 1.02678 31.0355 1.96447C31.9732 2.90215 32.5 4.17392 32.5 5.5V10.5C32.5 11.163 32.2366 11.7989 31.7678 12.2678C31.2989 12.7366 30.663 13 30 13C29.337 13 28.7011 12.7366 28.2322 12.2678C27.7634 11.7989 27.5 11.163 27.5 10.5V5.5H5V35.5H27.5V30.5C27.5 29.837 27.7634 29.2011 28.2322 28.7322C28.7011 28.2634 29.337 28 30 28C30.663 28 31.2989 28.2634 31.7678 28.7322C32.2366 29.2011 32.5 29.837 32.5 30.5V35.5C32.5 36.8261 31.9732 38.0979 31.0355 39.0355C30.0979 39.9732 28.8261 40.5 27.5 40.5H5C3.67392 40.5 2.40215 39.9732 1.46447 39.0355C0.526784 38.0979 0 36.8261 0 35.5V5.5ZM38.2325 11.2325C38.7013 10.7638 39.3371 10.5005 40 10.5005C40.6629 10.5005 41.2987 10.7638 41.7675 11.2325L49.2675 18.7325C49.7362 19.2013 49.9995 19.8371 49.9995 20.5C49.9995 21.1629 49.7362 21.7987 49.2675 22.2675L41.7675 29.7675C41.296 30.2229 40.6645 30.4749 40.009 30.4692C39.3535 30.4635 38.7265 30.2006 38.263 29.737C37.7994 29.2735 37.5365 28.6465 37.5308 27.991C37.5251 27.3355 37.7771 26.704 38.2325 26.2325L41.465 23H17.5C16.837 23 16.2011 22.7366 15.7322 22.2678C15.2634 21.7989 15 21.163 15 20.5C15 19.837 15.2634 19.2011 15.7322 18.7322C16.2011 18.2634 16.837 18 17.5 18H41.465L38.2325 14.7675C37.7638 14.2987 37.5005 13.6629 37.5005 13C37.5005 12.3371 37.7638 11.7013 38.2325 11.2325Z" fill="#FF9211"/>
</g>
<defs>
<clipPath id="clip0_280_160">
<rect width="50" height="40" fill="white" transform="translate(0 0.5)"/>
</clipPath>
</defs>
</svg>
