<svg width="126" height="27" viewBox="0 0 126 27" fill="none" xmlns="http://www.w3.org/2000/svg">
<g clip-path="url(#clip0_280_74)">
<path d="M48.2 3H51.75V20.5H48.325V9.15L43.4 17.275H43L38.075 9.175V20.5H34.625V3H38.175L43.2 11.275L48.2 3ZM56.4607 6.9C55.3857 6.9 54.4857 6.025 54.4857 4.975C54.4857 3.925 55.3857 3.025 56.4607 3.025C57.5607 3.025 58.4607 3.925 58.4607 4.975C58.4607 6.025 57.5607 6.9 56.4607 6.9ZM58.0857 20.5H54.8607V8H58.0857V20.5ZM67.9875 7.65C69.3625 7.65 70.4875 8.1 71.3625 9.025C72.2625 9.95 72.7125 11.2 72.7125 12.825V20.5H69.4875V13.225C69.4875 11.55 68.5125 10.65 67.0125 10.65C65.3375 10.65 64.2625 11.675 64.2625 13.75V20.5H61.0375V8H64.2625V9.4C65.0375 8.225 66.2875 7.65 67.9875 7.65ZM82.6162 8V11.1H79.7912V16.3C79.7912 17.65 80.7662 17.675 82.6162 17.575V20.5C78.1912 21 76.5662 19.725 76.5662 16.3V11.1H74.3912V8H76.5662V5.475L79.7912 4.5V8H82.6162Z" fill="#FF9211"/>
<path d="M12.4995 0.5C9.37393 13.6583 0 14.9717 12.4995 24.1817C25 14.9708 15.6251 13.6583 12.4995 0.5ZM4.68744 8.38583C3.12464 12.3325 0 14.985 0 18.9325C0 22.88 6.24929 25.5 10.9377 25.5C1.5628 18.92 4.68744 14.9642 4.68744 8.38583ZM20.3116 8.38583C20.3116 14.965 23.4372 18.9208 14.0623 25.5C18.7498 25.5 25 22.88 25 18.9325C25 14.985 21.8734 12.3325 20.3116 8.38583Z" fill="#FF9211"/>
</g>
<defs>
<clipPath id="clip0_280_74">
<rect width="126" height="26" fill="white" transform="translate(0 0.5)"/>
</clipPath>
</defs>
</svg>
