<svg width="26" height="27" viewBox="0 0 26 27" fill="none" xmlns="http://www.w3.org/2000/svg">
<g clip-path="url(#clip0_280_58)">
<mask id="mask0_280_58" style="mask-type:luminance" maskUnits="userSpaceOnUse" x="0" y="0" width="26" height="27">
<path d="M26 0.5H0V26.5H26V0.5Z" fill="white"/>
</mask>
<g mask="url(#mask0_280_58)">
<path fill-rule="evenodd" clip-rule="evenodd" d="M21.5313 23.9H4.46963C3.55132 23.9 2.8732 22.9939 3.21955 22.1606C4.82659 18.3074 8.60201 16.1 12.9998 16.1C17.3989 16.1 21.1743 18.3074 22.7814 22.1606C23.1277 22.9939 22.4496 23.9 21.5313 23.9ZM7.69167 8.29999C7.69167 5.43218 10.0737 3.09998 12.9998 3.09998C15.9272 3.09998 18.3079 5.43218 18.3079 8.29999C18.3079 11.1678 15.9272 13.5 12.9998 13.5C10.0737 13.5 7.69167 11.1678 7.69167 8.29999ZM25.9424 23.4268C24.9776 19.0601 21.9599 15.8374 17.9881 14.3749C20.0928 12.7148 21.3203 10.0302 20.8691 7.09092C20.3463 3.68101 17.4507 0.95237 13.9553 0.55457C9.13018 0.00467001 5.03759 3.68368 5.03759 8.29999C5.03759 10.757 6.20008 12.9462 8.01281 14.3749C4.03966 15.8374 1.02331 19.0601 0.0572311 23.4268C-0.293106 25.0141 1.0127 26.5 2.67016 26.5H23.3294C24.9882 26.5 26.294 25.0141 25.9424 23.4268Z" fill="#FF9211"/>
</g>
</g>
<defs>
<clipPath id="clip0_280_58">
<rect width="26" height="26" fill="white" transform="translate(0 0.5)"/>
</clipPath>
</defs>
</svg>
