<svg width="16" height="17" viewBox="0 0 16 17" fill="none" xmlns="http://www.w3.org/2000/svg">
<g clip-path="url(#clip0_280_179)">
<path fill-rule="evenodd" clip-rule="evenodd" d="M5.73475 5.42199C5.03589 6.47074 4.40724 7.52056 4.02117 8.20909L3.05186 7.20262C2.44886 6.56571 2.44886 5.56858 3.05186 4.93166C3.33726 4.63227 3.73244 4.46227 4.14607 4.46094H6.40157C6.17653 4.7696 5.95252 5.09167 5.73475 5.42199Z" stroke="#FF5C5C" stroke-linecap="round" stroke-linejoin="round"/>
<path fill-rule="evenodd" clip-rule="evenodd" d="M11.0762 10.7665C10.0274 11.4653 8.97759 12.094 8.28906 12.48L9.29553 13.4493C9.93245 14.0523 10.9296 14.0523 11.5665 13.4493C11.866 13.1639 12.0359 12.7688 12.0373 12.3551V10.0996C11.7286 10.3246 11.4065 10.5486 11.0762 10.7665Z" stroke="#FF5C5C" stroke-linecap="round" stroke-linejoin="round"/>
<path d="M3.71562 10.2859C4.0179 9.98353 4.0178 9.4933 3.71539 9.19105C3.41297 8.8887 2.92278 8.8888 2.6205 9.19126L3.71562 10.2859ZM0.226644 11.5861C-0.0756373 11.8885 -0.0755343 12.3787 0.226871 12.681C0.529287 12.9833 1.01948 12.9832 1.32177 12.6808L0.226644 11.5861ZM5.51087 12.083C5.81309 11.7805 5.81288 11.2903 5.5104 10.988C5.20792 10.6859 4.71772 10.6861 4.4155 10.9886L5.51087 12.083ZM3.22012 12.185C2.91791 12.4874 2.91812 12.9777 3.2206 13.2799C3.52308 13.582 4.01328 13.5818 4.3155 13.2794L3.22012 12.185ZM4.56751 7.65853C4.26479 7.35659 3.77459 7.35721 3.47261 7.65987C3.17063 7.96264 3.17122 8.45277 3.47393 8.75481L4.56751 7.65853ZM6.1596 10.3404L6.70774 9.79359L6.70639 9.79225L6.1596 10.3404ZM7.74518 13.0261C8.04722 13.3287 8.53734 13.3293 8.84011 13.0274C9.14277 12.7254 9.14339 12.2352 8.84145 11.9325L7.74518 13.0261ZM5.75855 4.0246C5.52007 4.37949 5.61444 4.86052 5.96935 5.099C6.32424 5.33749 6.80529 5.24312 7.04374 4.88822L5.75855 4.0246ZM8.27783 2.25662L7.78296 1.66123C7.77181 1.67053 7.76087 1.68015 7.75013 1.69007L8.27783 2.25662ZM15.1291 1.37093L15.8994 1.29417C15.8629 0.927289 15.5727 0.637095 15.2059 0.600532L15.1291 1.37093ZM14.2434 8.22319L14.8099 8.75089C14.8199 8.74015 14.8296 8.72911 14.839 8.71786L14.2434 8.22319ZM11.6118 9.45728C11.2569 9.69573 11.1625 10.1768 11.401 10.5317C11.6394 10.8866 12.1205 10.9809 12.4754 10.7425L11.6118 9.45728ZM7.30873 13.8794C7.61119 13.5772 7.61129 13.087 7.30893 12.7846C7.00668 12.4822 6.51646 12.4821 6.2141 12.7844L7.30873 13.8794ZM3.8192 15.1783C3.51679 15.4805 3.51669 15.9707 3.81897 16.2731C4.12125 16.5756 4.61145 16.5757 4.91387 16.2733L3.8192 15.1783ZM13.0184 4.57649C13.3207 4.27415 13.3207 3.78394 13.0184 3.4816C12.716 3.17925 12.2259 3.17925 11.9235 3.4816L13.0184 4.57649ZM10.6466 4.75852C10.3442 5.06087 10.3442 5.55108 10.6466 5.85342C10.949 6.15576 11.4391 6.15576 11.7414 5.85342L10.6466 4.75852ZM2.6205 9.19126L0.226644 11.5861L1.32177 12.6808L3.71562 10.2859L2.6205 9.19126ZM4.4155 10.9886L3.22012 12.185L4.3155 13.2794L5.51087 12.083L4.4155 10.9886ZM3.47393 8.75481L5.61281 10.8885L6.70639 9.79225L4.56751 7.65853L3.47393 8.75481ZM5.61149 10.8872L7.74518 13.0261L8.84145 11.9325L6.70774 9.79359L5.61149 10.8872ZM7.04374 4.88822C7.55007 4.13475 8.14116 3.44186 8.80553 2.82317L7.75013 1.69007C6.99915 2.3895 6.33096 3.1728 5.75855 4.0246L7.04374 4.88822ZM8.7727 2.85202C8.98422 2.67617 9.34789 2.5062 9.87198 2.36944C10.3839 2.23588 10.9879 2.14937 11.6248 2.10027C12.899 2.00202 14.2275 2.05913 15.0523 2.14132L15.2059 0.600532C14.3109 0.511364 12.8893 0.449767 11.5058 0.556433C10.8137 0.609781 10.1118 0.706629 9.48105 0.871195C8.86261 1.03258 8.24707 1.27551 7.78296 1.66123L8.7727 2.85202ZM14.3587 1.44769C14.4408 2.27255 14.4979 3.60093 14.3998 4.87536C14.3506 5.51233 14.2641 6.11638 14.1305 6.62842C13.9938 7.15272 13.8237 7.5167 13.6477 7.72852L14.839 8.71786C15.2245 8.25354 15.4674 7.63789 15.6288 7.01935C15.7933 6.3885 15.8902 5.68646 15.9435 4.99437C16.0503 3.61069 15.9886 2.18908 15.8994 1.29417L14.3587 1.44769ZM13.6768 7.69549C13.0581 8.35986 12.3652 8.95094 11.6118 9.45728L12.4754 10.7425C13.3272 10.1701 14.1105 9.50187 14.8099 8.75089L13.6768 7.69549ZM6.2141 12.7844L3.8192 15.1783L4.91387 16.2733L7.30873 13.8794L6.2141 12.7844ZM11.9235 3.4816L10.6466 4.75852L11.7414 5.85342L13.0184 4.57649L11.9235 3.4816Z" fill="#FF9211"/>
</g>
<defs>
<clipPath id="clip0_280_179">
<rect width="16" height="16" fill="white" transform="translate(0 0.5)"/>
</clipPath>
</defs>
</svg>
