<svg width="126" height="27" viewBox="0 0 126 27" fill="none" xmlns="http://www.w3.org/2000/svg">
<g clip-path="url(#clip0_280_40)">
<mask id="mask0_280_40" style="mask-type:luminance" maskUnits="userSpaceOnUse" x="0" y="0" width="126" height="27">
<path d="M126 0.5H0V26.5H126V0.5Z" fill="white"/>
</mask>
<g mask="url(#mask0_280_40)">
<mask id="mask1_280_40" style="mask-type:luminance" maskUnits="userSpaceOnUse" x="0" y="0" width="126" height="27">
<path d="M126 0.5H0V26.5H126V0.5Z" fill="white"/>
</mask>
<g mask="url(#mask1_280_40)">
<path d="M24 5.61111L21.8889 13H9.61986M22.9444 17.2222H10.2778L8.16667 3.5H5M13.4444 6.66667L15.5556 8.77778L19.7778 4.55556M11.3333 21.4444C11.3333 22.0274 10.8607 22.5 10.2778 22.5C9.69482 22.5 9.22222 22.0274 9.22222 21.4444C9.22222 20.8615 9.69482 20.3889 10.2778 20.3889C10.8607 20.3889 11.3333 20.8615 11.3333 21.4444ZM22.9444 21.4444C22.9444 22.0274 22.4719 22.5 21.8889 22.5C21.3059 22.5 20.8333 22.0274 20.8333 21.4444C20.8333 20.8615 21.3059 20.3889 21.8889 20.3889C22.4719 20.3889 22.9444 20.8615 22.9444 21.4444Z" stroke="#FF9211" stroke-width="2" stroke-linecap="round" stroke-linejoin="round"/>
<path d="M36.7242 16.525C37.0909 16.525 37.2742 16.7 37.2742 17.05V17.425C37.2742 17.925 37.3909 18.3 37.6242 18.55C37.8742 18.7833 38.2659 18.9 38.7992 18.9H46.3742C46.8242 18.9 47.1909 18.875 47.4742 18.825C47.7575 18.775 47.9742 18.6833 48.1242 18.55C48.2742 18.4 48.3742 18.2083 48.4242 17.975C48.4909 17.7417 48.5242 17.4417 48.5242 17.075V15.8C48.5242 15.4333 48.4909 15.1333 48.4242 14.9C48.3742 14.65 48.2742 14.4583 48.1242 14.325C47.9742 14.1917 47.7575 14.1 47.4742 14.05C47.1909 13.9833 46.8242 13.95 46.3742 13.95H38.4242C37.0575 13.95 36.0492 13.6417 35.3992 13.025C34.7659 12.3917 34.4492 11.425 34.4492 10.125V7.825C34.4492 6.525 34.7659 5.56667 35.3992 4.95C36.0492 4.31667 37.0575 4 38.4242 4H47.2742C48.0075 4 48.6325 4.075 49.1492 4.225C49.6659 4.35833 50.0825 4.58333 50.3992 4.9C50.7325 5.2 50.9659 5.6 51.0992 6.1C51.2492 6.6 51.3242 7.2 51.3242 7.9V8.425C51.3242 8.775 51.1409 8.95 50.7742 8.95H48.8242C48.4575 8.95 48.2742 8.775 48.2742 8.425V8.075C48.2742 7.575 48.1492 7.20833 47.8992 6.975C47.6659 6.725 47.2742 6.6 46.7242 6.6H39.7242C39.2742 6.6 38.9075 6.63333 38.6242 6.7C38.3575 6.75 38.1409 6.84167 37.9742 6.975C37.8242 7.10833 37.7159 7.29167 37.6492 7.525C37.5992 7.75833 37.5742 8.05833 37.5742 8.425V9.5C37.5742 9.86667 37.5992 10.175 37.6492 10.425C37.7159 10.6583 37.8242 10.8417 37.9742 10.975C38.1409 11.1083 38.3575 11.2083 38.6242 11.275C38.9075 11.325 39.2742 11.35 39.7242 11.35H47.6742C49.0409 11.35 50.0492 11.6667 50.6992 12.3C51.3492 12.9167 51.6742 13.875 51.6742 15.175V17.675C51.6742 18.975 51.3492 19.9417 50.6992 20.575C50.0492 21.1917 49.0409 21.5 47.6742 21.5H38.2742C37.5409 21.5 36.9159 21.4333 36.3992 21.3C35.8825 21.15 35.4575 20.925 35.1242 20.625C34.8075 20.3083 34.5742 19.9083 34.4242 19.425C34.2742 18.925 34.1992 18.3167 34.1992 17.6V17.05C34.1992 16.7 34.3825 16.525 34.7492 16.525H36.7242ZM57.5722 21.5C56.3389 21.5 55.4472 21.2583 54.8972 20.775C54.3639 20.275 54.0972 19.4083 54.0972 18.175V17.05C54.0972 16.4167 54.1639 15.8917 54.2972 15.475C54.4306 15.0417 54.6306 14.7 54.8972 14.45C55.1806 14.1833 55.5389 14 55.9722 13.9C56.4222 13.7833 56.9556 13.725 57.5722 13.725H64.3472V12.475C64.3472 12.1083 64.3222 11.8167 64.2722 11.6C64.2222 11.3667 64.1222 11.1833 63.9722 11.05C63.8222 10.9167 63.6056 10.825 63.3222 10.775C63.0556 10.725 62.6972 10.7 62.2472 10.7H58.5472C58.1472 10.7 57.8389 10.775 57.6222 10.925C57.4222 11.0583 57.3222 11.3167 57.3222 11.7V11.825C57.3222 12.125 57.1639 12.275 56.8472 12.275H55.0472C54.7139 12.275 54.5472 12.125 54.5472 11.825V11.675C54.5472 10.4917 54.8139 9.64167 55.3472 9.125C55.8972 8.60833 56.7889 8.35 58.0222 8.35H63.4972C64.7806 8.35 65.7222 8.63333 66.3222 9.2C66.9222 9.76667 67.2222 10.675 67.2222 11.925V18.55C67.2222 18.9333 67.4222 19.125 67.8222 19.125H67.9722C68.2889 19.125 68.4472 19.2833 68.4472 19.6V21.025C68.4472 21.3417 68.2889 21.5 67.9722 21.5H66.7722C66.0056 21.5 65.4556 21.325 65.1222 20.975C64.8056 20.6083 64.6472 20.1167 64.6472 19.5V19.325C64.1306 20.775 62.9056 21.5 60.9722 21.5H57.5722ZM61.6222 19.15C62.6222 19.15 63.3222 18.9583 63.7222 18.575C64.1389 18.175 64.3472 17.55 64.3472 16.7V16.025H58.2472C57.8306 16.025 57.5139 16.1 57.2972 16.25C57.0972 16.4 56.9972 16.675 56.9972 17.075V18.075C56.9972 18.475 57.0972 18.7583 57.2972 18.925C57.4972 19.075 57.8139 19.15 58.2472 19.15H61.6222ZM75.6791 19.125C75.9957 19.125 76.1541 19.2833 76.1541 19.6V21.025C76.1541 21.3417 75.9957 21.5 75.6791 21.5H74.2291C73.0457 21.5 72.1957 21.2583 71.6791 20.775C71.1791 20.2917 70.9291 19.4833 70.9291 18.35V3.475C70.9291 3.15833 71.0957 3 71.4291 3H73.3291C73.6457 3 73.8041 3.15833 73.8041 3.475V18C73.8041 18.4333 73.8874 18.7333 74.0541 18.9C74.2374 19.05 74.5791 19.125 75.0791 19.125H75.6791ZM82.1707 21.5C80.8707 21.5 79.9207 21.2167 79.3207 20.65C78.7374 20.0833 78.4457 19.175 78.4457 17.925V11.925C78.4457 10.675 78.7374 9.76667 79.3207 9.2C79.9207 8.63333 80.8707 8.35 82.1707 8.35H88.2207C89.4207 8.35 90.2957 8.61667 90.8457 9.15C91.4124 9.68333 91.6957 10.5333 91.6957 11.7V15.55C91.6957 15.8667 91.5374 16.025 91.2207 16.025H81.2957V17.375C81.2957 17.7417 81.3207 18.0417 81.3707 18.275C81.4207 18.5083 81.5207 18.6917 81.6707 18.825C81.8374 18.9417 82.054 19.025 82.3207 19.075C82.604 19.125 82.9707 19.15 83.4207 19.15H87.6957C88.1124 19.15 88.4207 19.0833 88.6207 18.95C88.8207 18.8 88.9207 18.5333 88.9207 18.15V18.125C88.9207 17.8083 89.0874 17.65 89.4207 17.65H91.2207C91.5374 17.65 91.6957 17.8083 91.6957 18.125V18.175C91.6957 19.3583 91.4207 20.2083 90.8707 20.725C90.3374 21.2417 89.454 21.5 88.2207 21.5H82.1707ZM81.2957 13.725H88.8957V11.825C88.8957 11.3917 88.7874 11.1 88.5707 10.95C88.354 10.7833 88.029 10.7 87.5957 10.7H83.4207C82.9707 10.7 82.604 10.725 82.3207 10.775C82.054 10.825 81.8374 10.9167 81.6707 11.05C81.5207 11.1833 81.4207 11.3667 81.3707 11.6C81.3207 11.8167 81.2957 12.1083 81.2957 12.475V13.725Z" fill="#FF9211"/>
</g>
</g>
</g>
<defs>
<clipPath id="clip0_280_40">
<rect width="126" height="26" fill="white" transform="translate(0 0.5)"/>
</clipPath>
</defs>
</svg>
