<svg width="45" height="50" viewBox="0 0 45 50" fill="none" xmlns="http://www.w3.org/2000/svg">
<g clip-path="url(#clip0_280_183)">
<path d="M18.5317 39.3182C28.0309 39.3182 35.7315 30.8523 35.7315 20.4091C35.7315 9.96589 28.0309 1.5 18.5317 1.5C9.03261 1.5 1.33203 9.96589 1.33203 20.4091C1.33203 30.8523 9.03261 39.3182 18.5317 39.3182Z" stroke="#FF9211" stroke-width="2" stroke-linejoin="round"/>
<path d="M42.7358 49.0762C43.2525 49.6441 44.0903 49.6441 44.6071 49.0762C45.1236 48.5081 45.1236 47.5871 44.6071 47.0189L42.7358 49.0762ZM44.6071 47.0189L32.4006 33.5993C31.8514 32.9955 30.9017 32.9955 30.3525 33.5993C29.8721 34.1274 29.8721 34.9341 30.3525 35.4622L42.7358 49.0762L44.6071 47.0189Z" fill="#FF9211"/>
</g>
<defs>
<clipPath id="clip0_280_183">
<rect width="45" height="49" fill="white" transform="translate(0 0.5)"/>
</clipPath>
</defs>
</svg>
