<svg width="48" height="49" viewBox="0 0 48 49" fill="none" xmlns="http://www.w3.org/2000/svg">
<path d="M19.7923 28.6738L44.295 4.18013M20.4888 29.7753L26.0448 40.8876C27.3875 43.5728 28.0588 44.9156 28.9045 45.2756C29.6385 45.5881 30.4775 45.5313 31.163 45.1233C31.9528 44.6531 32.4378 43.2323 33.408 40.3911L43.9058 9.64743C44.7513 7.1718 45.1738 5.93398 44.8845 5.11513C44.6328 4.40278 44.0725 3.84243 43.3603 3.59075C42.5413 3.30145 41.3035 3.72413 38.8278 4.56946L8.08412 15.0673C5.24289 16.0375 3.82227 16.5226 3.35199 17.3124C2.94387 17.9978 2.88732 18.8368 3.19977 19.5706C3.55982 20.4163 4.90249 21.0878 7.58784 22.4303L18.7 27.9866C19.1425 28.2078 19.3638 28.3183 19.5553 28.4661C19.7255 28.5973 19.878 28.7498 20.009 28.9198C20.157 29.1116 20.2675 29.3328 20.4888 29.7753Z" stroke="#FFB700" stroke-width="5" stroke-linecap="round" stroke-linejoin="round"/>
</svg>
