<svg width="22" height="26" viewBox="0 0 22 26" fill="none" xmlns="http://www.w3.org/2000/svg">
<g clip-path="url(#clip0_280_87)">
<mask id="mask0_280_87" style="mask-type:luminance" maskUnits="userSpaceOnUse" x="0" y="0" width="22" height="26">
<path d="M22 0.5H0V25.5H22V0.5Z" fill="white"/>
</mask>
<g mask="url(#mask0_280_87)">
<mask id="mask1_280_87" style="mask-type:luminance" maskUnits="userSpaceOnUse" x="0" y="0" width="22" height="26">
<path d="M22 0.5H0V25.5H22V0.5Z" fill="white"/>
</mask>
<g mask="url(#mask1_280_87)">
<mask id="mask2_280_87" style="mask-type:luminance" maskUnits="userSpaceOnUse" x="0" y="0" width="22" height="26">
<path d="M21.59 0.5H0V25.5H21.59V0.5Z" fill="white"/>
</mask>
<g mask="url(#mask2_280_87)">
<path d="M10.795 24.09C16.7569 24.09 21.59 19.2569 21.59 13.295C21.59 7.33309 16.7569 2.5 10.795 2.5C4.83309 2.5 0 7.33309 0 13.295C0 19.2569 4.83309 24.09 10.795 24.09Z" fill="#FF9211"/>
<path d="M17.6641 10.4697C18.112 10.0191 18.112 9.28857 17.6641 8.83796C17.216 8.38735 16.4898 8.38735 16.0418 8.83796L9.20582 15.7145L6.95814 13.4533C6.51019 13.0027 5.78391 13.0027 5.33596 13.4533C4.88801 13.904 4.88801 14.6346 5.33596 15.0851L8.39478 18.1621C8.84276 18.6126 9.56902 18.6126 10.0169 18.1621L17.6641 10.4697Z" fill="white"/>
</g>
</g>
</g>
</g>
<defs>
<clipPath id="clip0_280_87">
<rect width="22" height="25" fill="white" transform="translate(0 0.5)"/>
</clipPath>
</defs>
</svg>
