<svg width="126" height="27" viewBox="0 0 126 27" fill="none" xmlns="http://www.w3.org/2000/svg">
<g clip-path="url(#clip0_280_29)">
<mask id="mask0_280_29" style="mask-type:luminance" maskUnits="userSpaceOnUse" x="0" y="0" width="126" height="27">
<path d="M126 0.5H0V26.5H126V0.5Z" fill="white"/>
</mask>
<g mask="url(#mask0_280_29)">
<mask id="mask1_280_29" style="mask-type:luminance" maskUnits="userSpaceOnUse" x="0" y="0" width="126" height="27">
<path d="M126 0.5H0V26.5H126V0.5Z" fill="white"/>
</mask>
<g mask="url(#mask1_280_29)">
<path d="M10.835 12.7299C11.2697 13.1646 11.2697 13.8692 10.835 14.304L8.79999 16.339H19.5084C20.1231 16.339 20.6214 16.8373 20.6214 17.452C20.6214 18.0667 20.1231 18.565 19.5084 18.565H8.79999L10.835 20.6C11.2697 21.0346 11.2697 21.7393 10.835 22.174C10.4004 22.6087 9.69566 22.6087 9.26101 22.174L5.32598 18.239C4.89134 17.8043 4.89134 17.0996 5.32598 16.665L9.26101 12.7299C9.69566 12.2953 10.4004 12.2953 10.835 12.7299ZM19.2778 3.82599C19.6791 3.42477 20.3104 3.39391 20.7469 3.7334L20.8518 3.82599L24.7869 7.76101C25.1881 8.16223 25.2189 8.79355 24.8795 9.23017L24.7869 9.33503L20.8518 13.27C20.4172 13.7047 19.7125 13.7047 19.2778 13.27C18.8766 12.8688 18.8457 12.2375 19.1852 11.8009L19.2778 11.696L21.3129 9.66101H10.6044C9.98968 9.66101 9.49137 9.1627 9.49137 8.54802C9.49137 7.97723 9.92103 7.5068 10.4746 7.44251L10.6044 7.43503H21.3129L19.2778 5.4C18.8432 4.96535 18.8432 4.26064 19.2778 3.82599Z" fill="#FF9211"/>
<path d="M38.8798 7.58117H33.7798C33.4865 7.58117 33.3398 7.44117 33.3398 7.16117V5.92117C33.3398 5.64117 33.4865 5.50117 33.7798 5.50117H46.4998C46.7931 5.50117 46.9398 5.64117 46.9398 5.92117V7.16117C46.9398 7.44117 46.7931 7.58117 46.4998 7.58117H41.3998V19.0812C41.3998 19.3612 41.2531 19.5012 40.9598 19.5012H39.3198C39.0265 19.5012 38.8798 19.3612 38.8798 19.0812V7.58117ZM53.5056 10.8812C52.5056 10.8812 51.7922 11.1012 51.3656 11.5412C50.9522 11.9679 50.7456 12.6079 50.7456 13.4612V19.1212C50.7456 19.3745 50.6122 19.5012 50.3456 19.5012H48.8456C48.5789 19.5012 48.4456 19.3745 48.4456 19.1212V9.36117C48.4456 9.10784 48.5789 8.98117 48.8456 8.98117H50.0456C50.3122 8.98117 50.4456 9.10784 50.4456 9.36117V10.8612C50.8056 9.60784 51.8122 8.98117 53.4656 8.98117H54.4256C54.6922 8.98117 54.8256 9.10784 54.8256 9.36117V10.5012C54.8256 10.7545 54.6922 10.8812 54.4256 10.8812H53.5056ZM58.9082 19.5012C57.9216 19.5012 57.2082 19.3079 56.7682 18.9212C56.3416 18.5212 56.1282 17.8279 56.1282 16.8412V15.9412C56.1282 15.4345 56.1816 15.0145 56.2882 14.6812C56.3949 14.3345 56.5549 14.0612 56.7682 13.8612C56.9949 13.6479 57.2816 13.5012 57.6282 13.4212C57.9882 13.3279 58.4149 13.2812 58.9082 13.2812H64.3282V12.2812C64.3282 11.9879 64.3082 11.7545 64.2682 11.5812C64.2282 11.3945 64.1482 11.2479 64.0282 11.1412C63.9082 11.0345 63.7349 10.9612 63.5082 10.9212C63.2949 10.8812 63.0082 10.8612 62.6482 10.8612H59.6882C59.3682 10.8612 59.1216 10.9212 58.9482 11.0412C58.7882 11.1479 58.7082 11.3545 58.7082 11.6612V11.7612C58.7082 12.0012 58.5816 12.1212 58.3282 12.1212H56.8882C56.6216 12.1212 56.4882 12.0012 56.4882 11.7612V11.6412C56.4882 10.6945 56.7016 10.0145 57.1282 9.60117C57.5682 9.18784 58.2816 8.98117 59.2682 8.98117H63.6482C64.6749 8.98117 65.4282 9.20784 65.9082 9.66117C66.3882 10.1145 66.6282 10.8412 66.6282 11.8412V17.1412C66.6282 17.4479 66.7882 17.6012 67.1082 17.6012H67.2282C67.4816 17.6012 67.6082 17.7279 67.6082 17.9812V19.1212C67.6082 19.3745 67.4816 19.5012 67.2282 19.5012H66.2682C65.6549 19.5012 65.2149 19.3612 64.9482 19.0812C64.6949 18.7879 64.5682 18.3945 64.5682 17.9012V17.7612C64.1549 18.9212 63.1749 19.5012 61.6282 19.5012H58.9082ZM62.1482 17.6212C62.9482 17.6212 63.5082 17.4679 63.8282 17.1612C64.1616 16.8412 64.3282 16.3412 64.3282 15.6612V15.1212H59.4482C59.1149 15.1212 58.8616 15.1812 58.6882 15.3012C58.5282 15.4212 58.4482 15.6412 58.4482 15.9612V16.7612C58.4482 17.0812 58.5282 17.3079 58.6882 17.4412C58.8482 17.5612 59.1016 17.6212 59.4482 17.6212H62.1482ZM77.8337 12.3012C77.8337 12.0079 77.8137 11.7679 77.7737 11.5812C77.7337 11.3945 77.6537 11.2545 77.5337 11.1612C77.4137 11.0545 77.2404 10.9812 77.0137 10.9412C76.8004 10.9012 76.5137 10.8812 76.1537 10.8812H74.2537C73.4537 10.8812 72.887 11.0412 72.5537 11.3612C72.2337 11.6679 72.0737 12.1612 72.0737 12.8412V19.1212C72.0737 19.3745 71.9404 19.5012 71.6737 19.5012H70.1737C69.907 19.5012 69.7737 19.3745 69.7737 19.1212V9.36117C69.7737 9.10784 69.907 8.98117 70.1737 8.98117H71.4137C71.667 8.98117 71.7937 9.10784 71.7937 9.36117V10.7812C72.1804 9.58117 73.1604 8.98117 74.7337 8.98117H77.1537C78.1937 8.98117 78.947 9.20784 79.4137 9.66117C79.8937 10.1145 80.1337 10.8412 80.1337 11.8412V19.1212C80.1337 19.3745 80.007 19.5012 79.7537 19.5012H78.2337C77.967 19.5012 77.8337 19.3745 77.8337 19.1212V12.3012ZM84.8754 12.4412C84.8754 12.7479 84.9554 12.9679 85.1154 13.1012C85.2754 13.2212 85.5288 13.2812 85.8754 13.2812H90.2754C90.7688 13.2812 91.1888 13.3279 91.5354 13.4212C91.8954 13.5012 92.1821 13.6479 92.3954 13.8612C92.6221 14.0612 92.7888 14.3345 92.8954 14.6812C93.0021 15.0145 93.0554 15.4345 93.0554 15.9412V16.8412C93.0554 17.8279 92.8354 18.5212 92.3954 18.9212C91.9688 19.3079 91.2621 19.5012 90.2754 19.5012H85.1554C84.1688 19.5012 83.4554 19.2945 83.0154 18.8812C82.5888 18.4679 82.3754 17.7945 82.3754 16.8612V16.7212C82.3754 16.4812 82.5088 16.3612 82.7754 16.3612H84.2154C84.4821 16.3612 84.6154 16.4812 84.6154 16.7212V16.8212C84.6154 17.1279 84.6954 17.3412 84.8554 17.4612C85.0154 17.5679 85.2621 17.6212 85.5954 17.6212H89.7554C90.1021 17.6212 90.3554 17.5612 90.5154 17.4412C90.6754 17.3079 90.7554 17.0812 90.7554 16.7612V16.0012C90.7554 15.4145 90.4221 15.1212 89.7554 15.1212H85.3354C84.8421 15.1212 84.4221 15.0812 84.0754 15.0012C83.7288 14.9079 83.4421 14.7612 83.2154 14.5612C83.0021 14.3479 82.8421 14.0745 82.7354 13.7412C82.6288 13.3945 82.5754 12.9679 82.5754 12.4612V11.6412C82.5754 10.6545 82.7888 9.96784 83.2154 9.58117C83.6421 9.18117 84.3488 8.98117 85.3354 8.98117H90.0354C90.9954 8.98117 91.6888 9.18784 92.1154 9.60117C92.5554 10.0145 92.7754 10.6879 92.7754 11.6212V11.7612C92.7754 12.0012 92.6488 12.1212 92.3954 12.1212H90.9354C90.6821 12.1212 90.5554 12.0012 90.5554 11.7612V11.6612C90.5554 11.3679 90.4754 11.1612 90.3154 11.0412C90.1554 10.9212 89.9088 10.8612 89.5754 10.8612H85.8754C85.5288 10.8612 85.2754 10.9279 85.1154 11.0612C84.9554 11.1812 84.8754 11.4012 84.8754 11.7212V12.4412ZM96.195 10.8812H94.995C94.7416 10.8812 94.615 10.7545 94.615 10.5012V9.36117C94.615 9.10784 94.7416 8.98117 94.995 8.98117H96.195V7.60117C96.195 5.66784 97.2016 4.70117 99.215 4.70117H101.335C101.588 4.70117 101.715 4.82784 101.715 5.08117V6.22117C101.715 6.4745 101.588 6.60117 101.335 6.60117H99.8951C99.3351 6.60117 98.9616 6.6945 98.775 6.88117C98.5883 7.0545 98.495 7.3745 98.495 7.84117V8.98117H101.335C101.588 8.98117 101.715 9.10784 101.715 9.36117V10.5012C101.715 10.7545 101.588 10.8812 101.335 10.8812H98.495V19.1212C98.495 19.3745 98.3616 19.5012 98.095 19.5012H96.595C96.3283 19.5012 96.195 19.3745 96.195 19.1212V10.8812ZM106.361 19.5012C105.321 19.5012 104.561 19.2745 104.081 18.8212C103.614 18.3679 103.381 17.6412 103.381 16.6412V11.8412C103.381 10.8412 103.614 10.1145 104.081 9.66117C104.561 9.20784 105.321 8.98117 106.361 8.98117H111.201C112.161 8.98117 112.861 9.1945 113.301 9.62117C113.754 10.0478 113.981 10.7279 113.981 11.6612V14.7412C113.981 14.9945 113.854 15.1212 113.601 15.1212H105.661V16.2012C105.661 16.4945 105.681 16.7345 105.721 16.9212C105.761 17.1079 105.841 17.2545 105.961 17.3612C106.094 17.4545 106.267 17.5212 106.481 17.5612C106.707 17.6012 107.001 17.6212 107.361 17.6212H110.781C111.114 17.6212 111.361 17.5679 111.521 17.4612C111.681 17.3412 111.761 17.1279 111.761 16.8212V16.8012C111.761 16.5479 111.894 16.4212 112.161 16.4212H113.601C113.854 16.4212 113.981 16.5479 113.981 16.8012V16.8412C113.981 17.7879 113.761 18.4679 113.321 18.8812C112.894 19.2945 112.187 19.5012 111.201 19.5012H106.361ZM105.661 13.2812H111.741V11.7612C111.741 11.4145 111.654 11.1812 111.481 11.0612C111.307 10.9279 111.047 10.8612 110.701 10.8612H107.361C107.001 10.8612 106.707 10.8812 106.481 10.9212C106.267 10.9612 106.094 11.0345 105.961 11.1412C105.841 11.2479 105.761 11.3945 105.721 11.5812C105.681 11.7545 105.661 11.9879 105.661 12.2812V13.2812ZM121.787 10.8812C120.787 10.8812 120.074 11.1012 119.647 11.5412C119.234 11.9679 119.027 12.6079 119.027 13.4612V19.1212C119.027 19.3745 118.894 19.5012 118.627 19.5012H117.127C116.86 19.5012 116.727 19.3745 116.727 19.1212V9.36117C116.727 9.10784 116.86 8.98117 117.127 8.98117H118.327C118.594 8.98117 118.727 9.10784 118.727 9.36117V10.8612C119.087 9.60784 120.094 8.98117 121.747 8.98117H122.707C122.974 8.98117 123.107 9.10784 123.107 9.36117V10.5012C123.107 10.7545 122.974 10.8812 122.707 10.8812H121.787Z" fill="#FF9211"/>
</g>
</g>
</g>
<defs>
<clipPath id="clip0_280_29">
<rect width="126" height="26" fill="white" transform="translate(0 0.5)"/>
</clipPath>
</defs>
</svg>
