<svg width="42" height="42" viewBox="0 0 42 42" fill="none" xmlns="http://www.w3.org/2000/svg">
<mask id="mask0_280_198" style="mask-type:luminance" maskUnits="userSpaceOnUse" x="0" y="1" width="42" height="40">
<path d="M41.5 1H0.5V41H41.5V1Z" fill="white"/>
</mask>
<g mask="url(#mask0_280_198)">
<mask id="mask1_280_198" style="mask-type:luminance" maskUnits="userSpaceOnUse" x="0" y="1" width="42" height="40">
<path d="M41.5 1H0.5V41H41.5V1Z" fill="white"/>
</mask>
<g mask="url(#mask1_280_198)">
<path d="M4.96449 1C2.9554 1 1.32812 2.62727 1.32812 4.63636V37.3636C1.32812 39.3727 2.9554 41 4.96449 41H37.6918C39.7009 41 41.3281 39.3727 41.3281 37.3636V4.63636C41.3281 2.62727 39.7009 1 37.6918 1H4.96449ZM9.77983 10.0909H18.1641L23.0575 17.0866L29.1122 10.0909H31.7507L24.2436 18.7841L33.4268 31.9091H25.0426L19.6129 24.1463L12.9084 31.9091H10.2273L18.4197 22.4453L9.77983 10.0909ZM13.8352 12.2429L26.1151 29.7465H29.3679L17.0845 12.2429H13.8352Z" fill="#FFB700"/>
</g>
</g>
</svg>
