<svg width="126" height="27" viewBox="0 0 126 27" fill="none" xmlns="http://www.w3.org/2000/svg">
<g clip-path="url(#clip0_280_22)">
<mask id="mask0_280_22" style="mask-type:luminance" maskUnits="userSpaceOnUse" x="0" y="0" width="126" height="27">
<path d="M126 0.5H0V26.5H126V0.5Z" fill="white"/>
</mask>
<g mask="url(#mask0_280_22)">
<path d="M36.5742 14.7V3H39.4492V14.525C39.4492 16.65 40.6992 18.025 43.1992 18.025C45.6992 18.025 46.9492 16.65 46.9492 14.525V3H49.8242V14.7C49.8242 16.575 49.1992 18.05 47.9742 19.175C46.7492 20.275 45.1492 20.825 43.1992 20.825C41.2492 20.825 39.6492 20.275 38.4242 19.175C37.1992 18.05 36.5742 16.575 36.5742 14.7ZM59.531 7.675C62.406 7.675 64.331 9.625 64.331 12.825V20.5H61.631V13.1C61.631 11.225 60.556 10.2 58.831 10.2C56.931 10.2 55.656 11.375 55.656 13.8V20.5H52.956V8H55.656V9.6C56.481 8.325 57.756 7.675 59.531 7.675ZM69.9383 20.5H67.2383V2.25H69.9383V20.5ZM75.5982 6.05C74.9232 6.7 73.9232 6.7 73.2232 6.05C72.5732 5.35 72.5732 4.35 73.2232 3.675C73.8982 3 74.9482 3 75.6232 3.675C76.2732 4.35 76.2732 5.35 75.5982 6.05ZM75.7732 20.5H73.0732V8H75.7732V20.5ZM81.2599 11.45C81.2599 12.275 82.3099 12.7 83.6099 13.075C85.5349 13.5 88.0349 14.3 87.9849 16.975C87.9849 18.175 87.5099 19.125 86.5849 19.8C85.6599 20.475 84.5099 20.825 83.1099 20.825C80.6349 20.825 78.8099 19.725 78.0099 17.9L80.3349 16.55C80.7599 17.75 81.6849 18.35 83.1099 18.35C84.5349 18.35 85.2349 17.875 85.2349 16.95C85.2349 16.15 84.1849 15.675 82.8599 15.35C80.9849 14.875 78.4599 14.125 78.5099 11.5C78.5099 10.35 78.9349 9.425 79.8099 8.725C80.6849 8.025 81.7849 7.675 83.0849 7.675C85.1599 7.675 86.8349 8.65 87.7099 10.275L85.4349 11.55C85.0099 10.6 84.2099 10.125 83.0849 10.125C82.0599 10.125 81.2599 10.575 81.2599 11.45ZM96.8451 8V10.6H93.7451V16.6C93.7451 18.2 94.7951 18.175 96.8451 18.075V20.5C92.7201 21 91.0451 19.875 91.0451 16.6V10.6H88.7451V8H91.0451V5.3L93.7451 4.5V8H96.8451Z" fill="#FF9211"/>
<path fill-rule="evenodd" clip-rule="evenodd" d="M0.153303 15.02C0.512728 16.2733 1.47869 17.2393 3.4106 19.1711L5.69765 21.4581C9.05889 24.8194 10.7395 26.5 12.8279 26.5C14.9163 26.5 16.5969 24.8194 19.9581 21.4581C23.3194 18.0969 25 16.4163 25 14.3279C25 12.2395 23.3194 10.5589 19.9581 7.19765L17.6711 4.9106C15.7393 2.97869 14.7733 2.01273 13.52 1.6533C12.2668 1.29387 10.9356 1.60104 8.27344 2.21539L6.73822 2.56968C4.4985 3.08653 3.37865 3.34497 2.6118 4.1118C1.84497 4.87865 1.58653 5.99852 1.06968 8.23822L0.71539 9.77344C0.10104 12.4356 -0.206135 13.7668 0.153303 15.02ZM10.1543 8.08873C11.1388 9.0732 11.1388 10.6694 10.1543 11.6539C9.16976 12.6384 7.5736 12.6384 6.58911 11.6539C5.60464 10.6694 5.60464 9.0732 6.58911 8.08873C7.5736 7.10424 9.16976 7.10424 10.1543 8.08873ZM21.3139 14.0639L12.5901 22.7879C12.224 23.154 11.6304 23.154 11.2643 22.7879C10.8981 22.4219 10.8981 21.8283 11.2643 21.4621L19.988 12.738C20.3541 12.3719 20.9478 12.3719 21.3139 12.738C21.68 13.1041 21.68 13.6978 21.3139 14.0639Z" fill="#FF9211"/>
</g>
</g>
<defs>
<clipPath id="clip0_280_22">
<rect width="126" height="26" fill="white" transform="translate(0 0.5)"/>
</clipPath>
</defs>
</svg>
