<svg width="47" height="48" viewBox="0 0 47 48" fill="none" xmlns="http://www.w3.org/2000/svg">
<g clip-path="url(#clip0_280_108)">
<mask id="mask0_280_108" style="mask-type:luminance" maskUnits="userSpaceOnUse" x="0" y="0" width="47" height="48">
<path d="M47 0.5H0V47.5H47V0.5Z" fill="white"/>
</mask>
<g mask="url(#mask0_280_108)">
<mask id="mask1_280_108" style="mask-type:luminance" maskUnits="userSpaceOnUse" x="0" y="0" width="47" height="48">
<path d="M47 0.5H0V47.5H47V0.5Z" fill="white"/>
</mask>
<g mask="url(#mask1_280_108)">
<path d="M17.842 3.32073C17.2698 3.80838 16.9837 4.05222 16.6781 4.25705C15.9776 4.72658 15.1908 5.05245 14.3634 5.2158C14.0025 5.28707 13.6277 5.31697 12.8782 5.37677C10.995 5.52706 10.0533 5.60221 9.26772 5.8797C7.4507 6.52148 6.02148 7.9507 5.3797 9.76772C5.10221 10.5533 5.02708 11.4949 4.8768 13.3782C4.81699 14.1277 4.78707 14.5025 4.7158 14.8634C4.55245 15.6908 4.22658 16.4776 3.75705 17.1781C3.55222 17.4837 3.30836 17.7698 2.82066 18.3421C1.59528 19.7801 0.982541 20.499 0.623273 21.2507C-0.207758 22.9895 -0.207758 25.0105 0.623273 26.7493C0.982564 27.501 1.59526 28.2199 2.82064 29.6579C3.30824 30.2301 3.55224 30.5163 3.75705 30.8218C4.22658 31.5224 4.55245 32.3091 4.7158 33.1366C4.78707 33.4975 4.81697 33.8724 4.87677 34.6218C5.02706 36.5051 5.10221 37.4467 5.3797 38.2323C6.02148 40.0493 7.4507 41.4786 9.26772 42.1204C10.0533 42.3977 10.9949 42.4729 12.878 42.6233C13.6275 42.683 14.0025 42.7131 14.3634 42.7843C15.1908 42.9476 15.9776 43.2735 16.6781 43.7431C16.9837 43.9477 17.2698 44.1917 17.8421 44.6793C19.2801 45.9048 19.999 46.5175 20.7507 46.8768C22.4895 47.7077 24.5105 47.7077 26.2493 46.8768C27.001 46.5175 27.7199 45.9048 29.1579 44.6793C29.7301 44.1917 30.0163 43.9477 30.3218 43.7431C31.0224 43.2735 31.8091 42.9476 32.6366 42.7843C32.9975 42.7131 33.3724 42.683 34.1218 42.6233C36.0048 42.4729 36.9467 42.3977 37.7323 42.1204C39.5493 41.4786 40.9786 40.0493 41.6204 38.2323C41.8977 37.4467 41.9729 36.5051 42.1233 34.622C42.183 33.8726 42.2131 33.4975 42.2843 33.1366C42.4476 32.3091 42.7735 31.5224 43.2431 30.8218C43.4477 30.5163 43.6917 30.2301 44.1793 29.6579C45.4048 28.2199 46.0175 27.501 46.3768 26.7493C47.2077 25.0105 47.2077 22.9895 46.3768 21.2507C46.0175 20.499 45.4048 19.7801 44.1793 18.3421C43.6917 17.7698 43.4477 17.4837 43.2431 17.1781C42.7735 16.4776 42.4476 15.6908 42.2843 14.8634C42.2131 14.5025 42.183 14.1277 42.1233 13.3782C41.9729 11.4951 41.8977 10.5533 41.6204 9.76772C40.9786 7.9507 39.5493 6.52148 37.7323 5.8797C36.9467 5.60221 36.0051 5.52708 34.1218 5.3768C33.3724 5.31699 32.9975 5.28707 32.6366 5.2158C31.8091 5.05245 31.0224 4.72658 30.3218 4.25705C30.0163 4.05222 29.7301 3.80836 29.1579 3.32064C27.7199 2.09526 27.001 1.48256 26.2493 1.12327C24.5105 0.292242 22.4895 0.292242 20.7507 1.12327C19.999 1.48254 19.28 2.09535 17.842 3.32073Z" fill="#FF9211"/>
<path d="M33.7778 18.9779C34.5247 18.231 34.5247 17.02 33.7778 16.2731C33.0308 15.5262 31.8198 15.5262 31.073 16.2731L19.6748 27.6713L15.9271 23.9232C15.1802 23.1764 13.9692 23.1764 13.2223 23.9232C12.4754 24.6703 12.4754 25.8813 13.2223 26.6281L18.3225 31.7283C19.0694 32.4751 20.2804 32.4751 21.0272 31.7283L33.7778 18.9779Z" fill="white"/>
</g>
</g>
</g>
<defs>
<clipPath id="clip0_280_108">
<rect width="47" height="47" fill="white" transform="translate(0 0.5)"/>
</clipPath>
</defs>
</svg>
