<svg width="107" height="108" viewBox="0 0 107 108" fill="none" xmlns="http://www.w3.org/2000/svg">
<g clip-path="url(#clip0_280_193)">
<path d="M53.9757 0.504885C58.8051 0.779207 62.8248 3.08218 65.2494 7.76334L104.929 87.8652C108.776 95.9622 102.818 106.858 93.0422 107.015H13.1372C4.23941 106.873 -3.06108 96.7696 1.29709 87.7767L41.7175 7.67707C42.4741 6.23909 42.8192 5.82318 43.4718 5.0688C46.0956 2.02693 48.9649 0.398696 53.9757 0.504885ZM53.3231 9.34733C51.8032 9.42255 50.4117 10.2743 49.6529 11.5972C35.689 38.098 22.2274 64.8709 9.16614 91.8296C7.95824 94.5397 10.0311 98.0173 13.0642 98.1634C39.7441 98.5948 66.4352 98.5948 93.1152 98.1634C96.0464 98.0218 98.2498 94.6591 97.0287 91.8584C84.213 64.9041 71.0013 38.1312 57.283 11.626C56.4733 10.1858 55.2853 9.32078 53.3231 9.34733Z" fill="#D92929"/>
<path d="M56.6404 72.6103H49.2338L48.4197 36.2207H57.49L56.6404 72.6103ZM48.1719 83.7381C48.1719 82.3908 48.6077 81.2758 49.4815 80.3887C50.3576 79.5038 51.55 79.0591 53.061 79.0591C54.5742 79.0591 55.7666 79.5038 56.6404 80.3887C57.5143 81.2758 57.9523 82.3908 57.9523 83.7381C57.9523 85.0367 57.5254 86.1229 56.6758 86.9967C55.8241 87.8706 54.6206 88.3086 53.061 88.3086C51.5013 88.3086 50.2979 87.8706 49.4461 86.9967C48.5966 86.1229 48.1719 85.0367 48.1719 83.7381Z" fill="#D92929"/>
</g>
<defs>
<clipPath id="clip0_280_193">
<rect width="107" height="107" fill="white" transform="translate(0 0.5)"/>
</clipPath>
</defs>
</svg>
