<svg width="167" height="168" viewBox="0 0 167 168" fill="none" xmlns="http://www.w3.org/2000/svg">
<path d="M83.4994 1.04492C98.4313 1.04492 112.257 4.77787 124.977 12.2438C137.696 19.7097 147.789 29.8025 155.255 42.5222C162.721 55.2419 166.454 69.0676 166.454 83.9994C166.454 98.9313 162.721 112.757 155.255 125.477C147.789 138.196 137.696 148.289 124.977 155.755C112.257 163.221 98.4313 166.954 83.4994 166.954C68.5676 166.954 54.7419 163.221 42.0222 155.755C29.3025 148.289 19.2097 138.196 11.7438 125.477C4.27787 112.757 0.544922 98.9313 0.544922 83.9994C0.544922 69.0676 4.27787 55.2419 11.7438 42.5222C19.2097 29.8025 29.3025 19.7097 42.0222 12.2438C54.7419 4.77787 68.5676 1.04492 83.4994 1.04492ZM70.2267 37.5449V90.6358H96.7722V37.5449H70.2267ZM70.2267 103.909V130.454H96.7722V103.909H70.2267Z" fill="#FFB700"/>
</svg>
