<svg width="40" height="42" viewBox="0 0 40 42" fill="none" xmlns="http://www.w3.org/2000/svg">
<g clip-path="url(#clip0_280_102)">
<mask id="mask0_280_102" style="mask-type:luminance" maskUnits="userSpaceOnUse" x="0" y="0" width="40" height="42">
<path d="M40 0.5H0V41.5H40V0.5Z" fill="white"/>
</mask>
<g mask="url(#mask0_280_102)">
<path fill-rule="evenodd" clip-rule="evenodd" d="M15.1961 35.2928C15.5784 36.0095 15.9613 36.6552 16.3273 37.2275C12.4388 36.353 9.06458 34.1195 6.72973 31.0519C8.27069 30.1841 10.2443 29.2846 12.617 28.6264C13.2914 31.2712 14.2428 33.5052 15.1961 35.2928ZM18.1373 33.7241C17.3091 32.1715 16.4791 30.2324 15.8811 27.9348C17.1684 27.7437 18.5427 27.6335 20.0002 27.6335C21.4576 27.6335 22.8318 27.7437 24.1189 27.9346C23.5209 30.2324 22.6909 32.1715 21.8627 33.7241C21.1987 34.9692 20.5371 35.9632 20 36.6906C19.4629 35.9632 18.8013 34.9692 18.1373 33.7241ZM15 20.9668C15 22.2648 15.0873 23.4968 15.2413 24.6599C16.7264 24.4321 18.3142 24.3001 20.0002 24.3001C21.686 24.3001 23.2738 24.4319 24.7587 24.6599C24.9127 23.4966 25 22.2648 25 20.9668C25 19.6688 24.9127 18.437 24.7587 17.2737C23.2738 17.5015 21.686 17.6335 20.0002 17.6335C18.3142 17.6335 16.7264 17.5015 15.2413 17.2737C15.0873 18.4368 15 19.6688 15 20.9668ZM11.9708 16.5864C11.7773 17.9619 11.6667 19.4232 11.6667 20.9668C11.6667 22.5104 11.7773 23.9717 11.9708 25.3472C9.14085 26.107 6.79738 27.1784 4.98498 28.2092C3.92662 26.0192 3.33333 23.5624 3.33333 20.9668C3.33333 18.3712 3.92662 15.9144 4.98496 13.7243C6.79716 14.7551 9.14067 15.8265 11.9708 16.5864ZM15.8811 13.9989C17.1684 14.19 18.5427 14.3001 20.0002 14.3001C21.4576 14.3001 22.8318 14.19 24.1189 13.999C23.5209 11.7014 22.6909 9.7622 21.8627 8.20946C21.1987 6.96444 20.5371 5.97026 20 5.24306C19.4629 5.97026 18.8013 6.96444 18.1373 8.20942C17.3091 9.76215 16.4791 11.7013 15.8811 13.9989ZM28.0291 16.5866C28.2227 17.9621 28.3333 19.4235 28.3333 20.9668C28.3333 22.5104 28.2227 23.9715 28.0291 25.347C30.8591 26.107 33.2027 27.1784 35.0151 28.2092C36.0733 26.019 36.6667 23.5621 36.6667 20.9668C36.6667 18.3715 36.0733 15.9145 35.0151 13.7244C33.2029 14.7552 30.8593 15.8266 28.0291 16.5866ZM33.2702 10.8819C31.7291 11.7497 29.7556 12.6491 27.3831 13.3074C26.7087 10.6624 25.7573 8.42833 24.804 6.64084C24.4216 5.92406 24.0387 5.27846 23.6727 4.70613C27.5613 5.58064 30.9356 7.81426 33.2702 10.8819ZM12.617 13.3074C10.2445 12.649 8.27089 11.7496 6.72976 10.8818C9.06458 7.81422 12.4388 5.58064 16.3271 4.70613C15.9613 5.27846 15.5784 5.92404 15.1961 6.6408C14.2428 8.42829 13.2914 10.6624 12.617 13.3074ZM27.3831 28.6261C26.7087 31.2712 25.7573 33.5052 24.804 35.2928C24.4216 36.0095 24.0387 36.6552 23.6727 37.2275C27.5613 36.353 30.9356 34.1192 33.2704 31.0517C31.7293 30.1839 29.7558 29.2846 27.3831 28.6261ZM20 40.9668C31.0458 40.9668 40 32.0126 40 20.9668C40 9.92111 31.0458 0.966797 20 0.966797C8.95431 0.966797 0 9.92111 0 20.9668C0 32.0126 8.95431 40.9668 20 40.9668Z" fill="#FF9211"/>
</g>
</g>
<defs>
<clipPath id="clip0_280_102">
<rect width="40" height="41" fill="white" transform="translate(0 0.5)"/>
</clipPath>
</defs>
</svg>
