<svg width="31" height="32" viewBox="0 0 31 32" fill="none" xmlns="http://www.w3.org/2000/svg">
<g clip-path="url(#clip0_280_12)">
<mask id="mask0_280_12" style="mask-type:luminance" maskUnits="userSpaceOnUse" x="0" y="0" width="31" height="32">
<path d="M31 0.5H0V31.5H31V0.5Z" fill="white"/>
</mask>
<g mask="url(#mask0_280_12)">
<mask id="mask1_280_12" style="mask-type:luminance" maskUnits="userSpaceOnUse" x="0" y="0" width="31" height="32">
<path d="M31 0.5H0V31.5H31V0.5Z" fill="white"/>
</mask>
<g mask="url(#mask1_280_12)">
<path d="M25.8787 30.6213C27.0503 31.7929 28.9497 31.7929 30.1213 30.6213C31.2929 29.4497 31.2929 27.5503 30.1213 26.3787L25.8787 30.6213ZM5.12132 1.37868C3.94975 0.207107 2.05025 0.207107 0.87868 1.37868C-0.292893 2.55025 -0.292893 4.44975 0.87868 5.62132L5.12132 1.37868ZM30.1213 5.62132C31.2929 4.44975 31.2929 2.55025 30.1213 1.37868C28.9497 0.207107 27.0503 0.207107 25.8787 1.37868L30.1213 5.62132ZM0.87868 26.3787C-0.292893 27.5503 -0.292893 29.4497 0.87868 30.6213C2.05025 31.7929 3.94975 31.7929 5.12132 30.6213L0.87868 26.3787ZM30.1213 26.3787L17.6213 13.8787L13.3787 18.1213L25.8787 30.6213L30.1213 26.3787ZM17.6213 13.8787L5.12132 1.37868L0.87868 5.62132L13.3787 18.1213L17.6213 13.8787ZM17.6213 18.1213L30.1213 5.62132L25.8787 1.37868L13.3787 13.8787L17.6213 18.1213ZM13.3787 13.8787L0.87868 26.3787L5.12132 30.6213L17.6213 18.1213L13.3787 13.8787Z" fill="#FF9211"/>
</g>
</g>
</g>
<defs>
<clipPath id="clip0_280_12">
<rect width="31" height="31" fill="white" transform="translate(0 0.5)"/>
</clipPath>
</defs>
</svg>
