<svg width="651" height="245" viewBox="0 0 651 245" fill="none" xmlns="http://www.w3.org/2000/svg">
<g clip-path="url(#clip0_246_86)">
<path fill-rule="evenodd" clip-rule="evenodd" d="M106.967 25.4252L22.9119 73.946V171.054L106.967 219.575L191.021 171.054V73.946L106.967 25.4252ZM110.497 0.93185C108.299 -0.332752 105.635 -0.332752 103.437 0.93185L3.53003 58.6376C1.33209 59.9022 0 62.2318 0 64.761V180.173C0 182.702 1.33209 185.031 3.53003 186.296L103.437 244.002C105.635 245.266 108.299 245.266 110.497 244.002L210.403 186.296C212.601 185.031 213.933 182.702 213.933 180.173V64.761C213.933 62.2318 212.601 59.9022 210.403 58.6376L110.497 0.93185Z" fill="#FF9211"/>
<path d="M106.966 60.568L53.3499 91.5175V153.416L106.633 184.166C106.833 184.299 106.966 184.499 106.966 184.765V195.348C106.966 195.88 106.367 196.213 105.901 195.947L45.4239 161.071C43.7588 160.139 42.7598 158.408 42.7598 156.478V88.4558C42.7598 86.5922 43.7588 84.7951 45.4239 83.8633L104.302 49.8522C105.967 48.9204 107.965 48.9204 109.564 49.8522L170.307 84.7951C170.773 85.0614 170.773 85.7269 170.307 85.9932C166.711 88.123 164.912 89.0548 160.849 91.3178C160.65 91.4509 160.383 91.4509 160.183 91.3178L106.966 60.568Z" fill="#FF9211"/>
<path d="M115.825 123.797C115.825 123.531 115.958 123.265 116.225 123.198L169.508 94.8447C169.975 94.5784 170.574 94.9112 170.574 95.4437V164.464C170.574 164.731 170.441 164.93 170.241 165.063L116.957 196.013C116.491 196.279 115.892 195.946 115.892 195.414V123.797H115.825Z" fill="#FF9211"/>
</g>
<path d="M329.696 139.16H343.256C344.936 139.16 345.896 140.12 345.896 141.68V148.28C345.896 162.08 340.736 167 326.336 167H281.936C268.256 167 261.776 161 261.776 147.8V102.2C261.776 89 268.256 83 281.936 83H326.336C340.736 83 345.896 87.92 345.896 101.72V108.32C345.896 109.88 344.936 110.84 343.256 110.84H329.696C327.896 110.84 327.056 109.88 327.056 108.32V104.24C327.056 100.52 325.256 98.72 321.176 98.72H291.896C283.016 98.72 281.216 100.28 281.216 107.72V142.28C281.216 149.72 283.016 151.28 291.896 151.28H321.176C325.256 151.28 327.056 149.48 327.056 145.76V141.68C327.056 140.12 327.896 139.16 329.696 139.16ZM447.247 102.2V147.8C447.247 161 441.007 167 427.207 167H378.967C365.287 167 358.807 161 358.807 147.8V102.2C358.807 89 365.287 83 378.967 83H427.207C441.007 83 447.247 89 447.247 102.2ZM427.807 142.28V107.72C427.807 100.28 426.007 98.72 417.127 98.72H388.927C380.047 98.72 378.247 100.28 378.247 107.72V142.28C378.247 149.72 380.047 151.28 388.927 151.28H417.127C426.007 151.28 427.807 149.72 427.807 142.28ZM529.127 83C542.807 83 548.807 88.88 548.807 101.72V118.28C548.807 131.24 542.807 137.84 529.127 137.84H525.887L551.327 164.48C552.407 165.44 551.807 167 550.487 167H532.367C530.087 167 529.127 166.52 527.927 165.08L504.287 138.68H482.927V164.48C482.927 166.04 481.847 167 480.167 167H466.127C464.327 167 463.487 166.04 463.487 164.48V85.52C463.487 83.96 464.327 83 466.127 83H529.127ZM482.927 98.72V122.96H519.527C527.927 122.96 529.367 121.52 529.367 114.56V107.12C529.367 100.16 527.927 98.72 519.527 98.72H482.927ZM566.088 83H642.408C644.088 83 645.048 83.96 645.048 85.52V96.2C645.048 97.76 644.088 98.72 642.408 98.72H582.888V116.96H632.928C634.608 116.96 635.688 117.8 635.688 119.48V129.8C635.688 131.36 634.608 132.32 632.928 132.32H582.888V151.28H642.408C644.088 151.28 645.048 152.24 645.048 153.8V164.48C645.048 166.04 644.088 167 642.408 167H566.088C564.288 167 563.448 166.04 563.448 164.48V85.52C563.448 83.96 564.288 83 566.088 83Z" fill="#FF9211"/>
<defs>
<clipPath id="clip0_246_86">
<rect width="214" height="245" fill="white"/>
</clipPath>
</defs>
</svg>
